<svg xmlns="http://www.w3.org/2000/svg" shape-rendering="crispEdges" viewBox="0 -.5 22 22"><path d="M6 0h1M5 1h1m1 0h1M4 2h1m2 0h1M4 3h1m2 0h1M3 4h1m3 0h1m1 0h2m6 0h2M3 5h1m3 0h2m1 0h2m1 0h4m1 0h1M3 6h1m7 0h2m3 0h1m2 0h2M3 7h1m16 0h1M3 8h1m15 0h1M2 9h1m15 0h1M2 10h1m16 0h1M2 11h1m5 0h1m9 0h1M1 12h1m5 0h1m9 0h1M2 13h1m15 0h1M1 14h1m12 0h1m4 0h1M2 15h2m9 0h1m1 0h2m2 0h1M4 16h1m6 0h2m4 0h1m1 0h1M4 17h1m6 0h1m5 0h2M3 18h1m6 0h1m-7 1h3m3 0h1m-4 1h3" stroke="#202020"/><path d="M6 1h1M5 2h2M5 3h2M4 4h2M4 5h1m1 0h1m2 0h1M5 6h1m1 0h2m1 0h1m2 0h3M4 7h6m1 0h2m2 0h1m2 0h2M4 8h5m1 0h1m3 0h1m2 0h2M4 9h6m3 0h1M4 10h3m2 0h1m6 0h3M3 11h3m8 0h2M4 12h2m1 7h1m1 0h1" stroke="#ffff8c"/><path d="M6 4h1m11 2h1m-3 1h1m-2 1h1m-2 1h1M3 10h1m9 0h2m-4 1h2m4 0h1m-8 1h1m2 0h1M4 13h1m4 0h1m2 0h1m-7 1h2m-4 1h1m5 0h1m-5 1h2m1 0h1m-5 1h1m1 0h2m-3 1h2" stroke="#525252"/><path d="M5 5h1M4 6h1m5 1h1M9 8h1m-2 2h1m-3 1h1m-1 1h1" stroke="#846b29"/><path d="M17 5h1m-1 1h1m-1 1h1m-2 2h2m-7 1h2m2 0h1m-7 1h2m-3 1h2m-4 1h2m7 0h2m-2 1h3m-1 1h2m-1 1h1m-9 1h1m-7 1h1m3 0h2m-2 1h1" stroke="#ffde52"/><path d="M6 6h1m2 0h1m6 2h1m-2 1h1m-9 1h1m5 1h1m2 0h1m-3 1h3M5 13h1m2 0h1m4 0h2m2 0h1m0 1h1m-9 2h1m-5 1h1m2 0h1m-5 1h1" stroke="#cead4a"/><path d="M13 7h2m-4 1h3m-4 1h3m-3 1h1" stroke="#4a087b"/><path d="M3 9h1m3 2h1m-6 1h1m9 0h1M2 14h2m5 0h1m1 0h1m-6 1h1m1 0h2m2 0h1m-8 1h1m2 0h1" stroke="#fff"/><path d="M3 12h1m7 1h1m-7 1h1m2 0h1m3 0h2" stroke="#ad8c3a"/><path d="M11 12h1m-9 1h1m6 0h1m-7 1h1m5 0h1m-6 1h1m1 0h1m3 0h1" stroke="#c5c5c5"/></svg>